<?xml version="1.0" standalone="no"?>
<!DOCTYPE svg PUBLIC "-//W3C//DTD SVG 20010904//EN"
 "http://www.w3.org/TR/2001/REC-SVG-20010904/DTD/svg10.dtd">
<svg version="1.0" xmlns="http://www.w3.org/2000/svg"
 width="960.000000pt" height="1088.000000pt" viewBox="0 0 960.000000 1088.000000"
 preserveAspectRatio="xMidYMid meet">

<g transform="translate(0.000000,1088.000000) scale(0.100000,-0.100000)"
fill="#000000" stroke="none">
<path d="M4547 9232 c-40 -25 -71 -94 -64 -143 7 -56 29 -83 100 -128 34 -22
70 -53 80 -70 25 -42 32 -113 17 -166 -23 -83 -133 -155 -237 -155 -115 0
-171 97 -65 114 77 12 113 92 70 155 -88 131 -333 111 -415 -34 -42 -73 -25
-208 31 -254 40 -33 -5 -111 -63 -111 -17 0 -53 9 -80 20 -149 58 -323 80
-374 47 -97 -63 -83 -198 27 -266 18 -12 64 -29 100 -38 71 -17 84 -35 41 -55
-20 -9 -43 -6 -123 16 -162 43 -234 31 -283 -46 -27 -44 -23 -131 10 -176 29
-42 97 -81 179 -104 76 -21 86 -28 78 -56 -11 -33 -31 -33 -121 -1 -120 41
-189 47 -248 21 -47 -21 -69 -50 -82 -110 -11 -54 31 -127 110 -190 54 -44 65
-58 65 -83 0 -42 -39 -79 -83 -79 -20 0 -77 20 -138 49 -219 104 -462 125
-676 60 -189 -57 -310 -151 -375 -289 -46 -98 -59 -155 -59 -259 1 -191 72
-330 234 -460 98 -77 365 -246 547 -344 197 -106 223 -123 244 -158 35 -58 10
-118 -85 -204 -69 -63 -154 -125 -172 -125 -10 0 -44 27 -76 60 -33 33 -71 64
-85 70 -50 18 -114 -24 -164 -110 -26 -43 -27 -52 -27 -180 0 -133 -1 -136
-31 -190 -39 -70 -98 -115 -168 -131 -48 -10 -58 -10 -80 5 -38 24 -32 54 18
104 53 50 70 95 64 168 -9 107 -92 185 -205 192 -85 6 -141 -16 -192 -74 -92
-105 -67 -253 54 -326 55 -33 74 -64 52 -85 -9 -9 -34 -3 -107 27 -157 64
-240 62 -287 -9 -48 -71 -20 -152 69 -197 165 -83 331 -206 359 -268 21 -47
24 -92 6 -122 -7 -11 -42 -54 -79 -95 -171 -188 -258 -350 -314 -584 -25 -107
-30 -310 -10 -434 31 -195 124 -414 236 -555 145 -182 423 -347 708 -420 141
-37 618 -103 907 -126 335 -27 714 -23 1070 11 61 6 205 11 320 11 319 0 465
-35 575 -138 90 -84 126 -203 100 -329 -17 -82 -77 -217 -133 -302 -26 -39
-47 -73 -47 -76 0 -11 82 23 146 58 176 99 264 250 264 456 0 54 -7 113 -20
160 -11 41 -20 79 -20 85 0 6 28 21 63 34 110 40 274 130 346 190 45 38 82 61
103 64 18 2 77 9 130 15 152 17 427 91 596 161 461 191 891 533 1135 905 326
497 338 1131 32 1611 -142 223 -424 418 -703 489 -105 26 -142 53 -142 101 0
13 23 78 51 144 77 184 93 260 86 405 -9 194 -56 325 -184 515 -117 174 -210
251 -373 311 -114 41 -246 56 -357 41 -49 -7 -112 -18 -142 -24 -51 -12 -54
-12 -73 12 -28 35 -22 61 75 287 125 294 157 403 157 539 0 320 -220 611 -525
695 -68 18 -97 21 -209 16 -215 -8 -378 -67 -561 -202 -49 -37 -106 -75 -125
-85 -106 -53 -434 -90 -512 -57 -21 9 -38 20 -38 24 0 4 42 8 93 8 87 0 96 2
157 36 129 71 181 198 135 330 -20 56 -53 91 -140 147 -78 50 -94 67 -95 98
-1 60 60 74 115 25 57 -50 145 -37 145 22 0 13 -8 15 -48 10 -48 -5 -49 -5
-87 41 -21 26 -51 54 -66 62 -38 19 -98 17 -132 -4z m1175 -853 c187 -39 326
-190 336 -364 12 -203 -93 -480 -285 -748 -146 -204 -223 -346 -279 -519 -24
-73 -27 -99 -28 -223 -1 -122 2 -149 23 -213 31 -94 80 -170 164 -252 59 -58
185 -145 195 -135 2 2 -15 27 -38 56 -90 114 -139 251 -147 409 -7 139 12 222
80 365 59 122 170 295 190 295 7 0 39 -26 70 -58 50 -51 60 -67 73 -122 33
-142 131 -248 252 -275 37 -8 37 -7 16 60 -23 74 -24 193 -1 227 74 108 266
59 438 -112 68 -67 94 -101 123 -162 50 -105 69 -199 63 -323 -6 -133 -27
-193 -93 -264 -91 -98 -183 -128 -299 -96 -114 30 -175 93 -175 179 0 47 9 66
30 66 24 0 77 -45 96 -81 20 -40 44 -38 44 5 0 38 -47 132 -97 194 -37 46
-154 137 -213 168 -83 42 -168 35 -199 -17 -43 -70 -31 -257 23 -375 39 -84
111 -179 169 -223 128 -97 290 -147 440 -137 75 5 89 3 94 -10 8 -20 -9 -31
-65 -39 -68 -10 -238 -72 -322 -117 -104 -55 -192 -123 -281 -215 -89 -92
-139 -164 -204 -292 l-47 -95 -36 45 c-133 166 -318 282 -537 338 l-100 26
-27 95 c-15 52 -28 104 -28 116 0 11 22 46 49 77 60 69 102 142 133 230 19 58
29 72 58 88 47 25 86 56 79 64 -3 3 -29 1 -57 -5 -92 -20 -224 16 -308 85 -23
19 -45 35 -48 35 -12 0 -5 -59 13 -118 16 -48 17 -68 10 -103 -11 -47 -34 -89
-48 -89 -5 0 -31 35 -58 78 -77 120 -202 270 -323 385 -60 57 -110 109 -110
115 0 6 15 20 34 32 47 28 92 81 104 122 14 44 35 199 28 205 -7 8 -50 -21
-100 -67 -23 -20 -88 -69 -145 -109 -110 -75 -145 -112 -137 -146 7 -29 -8
-47 -35 -43 -21 3 -24 8 -23 45 1 79 98 198 217 267 59 35 145 121 133 134 -3
2 -26 -14 -53 -35 -26 -22 -83 -61 -125 -87 -89 -54 -171 -140 -217 -226 -26
-48 -37 -60 -56 -60 -76 0 -60 173 26 281 17 21 88 87 157 146 163 137 272
236 267 241 -5 5 -215 -129 -288 -185 -102 -79 -222 -199 -253 -255 -26 -48
-29 -62 -28 -141 l0 -87 -50 -16 c-82 -24 -313 -51 -327 -37 -11 11 -69 313
-72 378 l-2 30 146 21 c153 22 199 39 218 81 25 55 6 110 -48 137 -26 14 -27
18 -23 69 4 50 2 55 -28 80 -37 32 -76 34 -190 13 -41 -8 -78 -12 -83 -9 -23
14 38 113 94 150 l40 26 297 2 c327 2 368 8 507 65 99 42 167 88 179 123 13
37 -18 78 -70 94 -55 16 -204 15 -299 -3 -157 -29 -174 -31 -245 -22 -40 5
-87 15 -106 23 -29 12 -34 19 -34 49 0 61 72 85 153 51 49 -20 122 -19 242 4
55 11 152 23 215 27 113 7 115 7 149 41 29 29 33 38 28 69 -8 50 -31 80 -75
103 -59 30 -103 33 -214 15 -57 -9 -132 -17 -166 -18 -56 -1 -66 2 -83 23 -27
33 -21 79 12 104 26 19 28 19 172 -2 107 -16 194 -21 334 -21 104 0 192 -3
195 -6 3 -3 0 -29 -8 -57 -21 -79 -18 -232 6 -310 43 -137 144 -244 292 -305
191 -79 384 -65 501 38 112 99 122 283 21 384 -88 88 -248 89 -350 3 -39 -33
-53 -33 -89 -5 -44 35 -75 112 -75 189 0 106 37 170 150 260 126 101 243 135
372 108z m-2832 -1252 c41 -13 115 -47 164 -75 100 -58 145 -68 244 -56 37 5
73 9 80 9 10 0 13 -46 16 -205 3 -219 14 -303 67 -510 34 -131 100 -304 166
-433 25 -48 43 -90 40 -94 -4 -3 -48 6 -99 20 -51 14 -110 28 -130 32 -47 7
-70 30 -66 64 4 32 39 39 92 17 20 -8 36 -13 36 -10 0 15 -106 156 -156 207
-74 76 -137 118 -319 212 -302 157 -347 184 -533 329 -112 87 -144 129 -163
214 -29 138 64 263 221 299 84 19 249 10 340 -20z m891 13 c25 -14 25 -64 0
-89 -16 -16 -51 -25 -184 -46 -33 -5 -38 -3 -47 20 -12 32 -13 65 -1 84 18 29
192 52 232 31z m79 -170 c11 -11 20 -24 20 -30 0 -28 -27 -61 -62 -74 -46 -19
-213 -47 -232 -40 -26 10 -37 106 -13 121 18 11 176 41 225 42 30 1 48 -5 62
-19z m235 -613 c11 1 39 4 61 8 38 7 45 4 81 -29 22 -20 44 -36 48 -36 4 0 19
9 35 20 15 11 53 23 84 26 l57 7 162 -164 c130 -130 180 -189 245 -286 120
-181 124 -210 47 -337 -19 -32 -33 -61 -30 -64 3 -3 40 -1 82 5 72 10 79 9 95
-9 22 -25 33 -84 22 -116 l-9 -26 -145 0 c-202 -1 -239 -26 -135 -93 128 -82
196 -134 275 -213 94 -92 153 -171 222 -295 116 -205 158 -353 165 -580 6
-169 -8 -247 -66 -371 -139 -296 -394 -528 -700 -638 -153 -55 -242 -70 -426
-70 -160 -1 -175 1 -260 27 -148 47 -218 89 -325 197 -108 107 -158 186 -196
305 -91 288 -16 541 226 761 25 23 106 83 180 134 173 119 238 171 330 264 41
42 82 76 92 76 22 0 217 -187 303 -290 123 -148 241 -355 303 -530 64 -183 78
-392 36 -555 -2 -11 7 1 21 28 14 26 38 91 53 145 23 83 27 116 26 227 0 201
-39 320 -194 587 -155 267 -287 451 -486 673 -144 161 -287 344 -377 480 -104
158 -333 623 -315 640 3 3 74 23 159 44 85 22 165 44 179 49 14 6 32 8 40 5 8
-4 24 -6 35 -6z m-397 -711 c29 -8 63 -21 75 -29 12 -8 48 -61 81 -118 71
-125 166 -262 281 -400 46 -57 81 -106 77 -110 -4 -4 -65 -3 -137 2 -203 15
-421 0 -634 -42 -196 -39 -288 -23 -378 66 -112 113 -109 267 8 422 69 92 205
178 326 207 76 19 234 19 301 2z m3492 -351 c222 -58 427 -241 515 -462 77
-192 71 -499 -16 -767 -41 -125 -135 -313 -210 -421 -91 -129 -301 -336 -418
-413 -175 -115 -413 -219 -711 -312 -322 -99 -620 -144 -923 -139 l-188 4 63
-28 c81 -36 202 -71 301 -87 108 -18 101 -49 -20 -89 -85 -28 -153 -26 -291 9
-244 61 -604 110 -812 110 -106 0 -112 1 -137 26 -21 21 -24 32 -20 61 4 20
12 40 19 45 7 4 54 8 105 8 398 1 871 219 1134 525 254 295 376 604 384 969 2
85 8 153 14 159 13 13 50 -3 102 -44 46 -36 126 -73 199 -92 75 -20 200 -32
200 -19 0 5 -18 22 -40 37 -82 57 -152 160 -175 256 -38 163 2 310 120 437
103 111 281 206 443 237 96 18 272 13 362 -10z m-4461 -170 c7 -31 30 -91 51
-133 75 -148 175 -248 317 -317 41 -20 73 -42 73 -50 0 -8 -15 -38 -34 -67
-134 -211 -195 -427 -183 -652 14 -269 124 -513 315 -698 211 -205 514 -338
832 -366 80 -7 86 -9 98 -35 9 -18 11 -42 8 -63 -13 -68 18 -64 -557 -59 -556
6 -646 12 -837 60 -128 33 -215 66 -342 132 -196 100 -295 193 -370 348 -90
188 -92 381 -5 572 50 108 86 155 239 311 160 163 257 248 400 350 54 39 105
81 114 93 8 12 16 41 16 65 1 51 -25 91 -75 116 -62 32 -251 19 -417 -29 -62
-17 -79 -13 -93 24 -19 50 -5 70 84 114 146 74 236 156 304 277 19 34 38 62
42 62 4 0 13 -25 20 -55z"/>
</g>
</svg>
